paper_minjerk_fatigue_30cycles
version=1
nRows=388
nColumns=3
inDegrees=yes
endheader
time	r_shoulder_elev	r_elbow_flex
30.8300	20.000000	111.926237
30.8400	20.000000	112.088147
30.8500	20.000000	112.219331
30.8600	20.000000	112.299112
30.8700	20.000000	112.306910
30.8800	20.000000	112.228207
30.8900	20.000000	112.065661
30.9000	20.000000	111.848863
30.9100	20.000000	111.634662
30.9200	20.000000	111.493299
30.9300	20.000000	111.483241
30.9400	20.000000	111.625191
30.9500	20.000000	111.886930
30.9600	20.000000	112.188622
30.9700	20.000000	112.429257
30.9800	20.000000	112.524829
30.9900	20.000000	112.442437
31.0000	20.000000	112.215130
31.0100	20.000000	111.930100
31.0200	20.000000	111.694430
31.0300	20.000000	111.592613
31.0400	20.000000	111.653811
31.0500	20.000000	111.842508
31.0600	20.000000	112.075810
31.0700	20.000000	112.259103
31.0800	20.000000	112.324232
31.0900	20.000000	112.254228
31.1000	20.000000	112.085486
31.1100	20.000000	111.888639
31.1200	20.000000	111.738044
31.1300	20.000000	111.683309
31.1400	20.000000	111.735431
31.1500	20.000000	111.869040
31.1600	20.000000	112.036745
31.1700	20.000000	112.187251
31.1800	20.000000	112.279254
31.1900	20.000000	112.287481
31.2000	20.000000	112.202397
31.2100	20.000000	112.027936
31.2200	20.000000	111.780851
31.2300	20.000000	111.491769
31.2400	20.000000	111.204588
31.2500	20.000000	110.969964
31.2600	20.000000	110.831463
31.2700	20.000000	110.807957
31.2800	20.000000	110.880118
31.2900	20.000000	110.989332
31.3000	20.000000	111.052963
31.3100	20.000000	110.992280
31.3200	20.000000	110.762311
31.3300	20.000000	110.370316
31.3400	20.000000	109.873475
31.3500	20.000000	109.355448
31.3600	20.000000	108.891490
31.3700	20.000000	108.517812
31.3800	20.000000	108.219464
31.3900	20.000000	107.942501
31.4000	20.000000	107.624429
31.4100	20.000000	107.227722
31.4200	20.000000	106.759384
31.4300	20.000000	106.266246
31.4400	20.000000	105.807884
31.4500	20.000000	105.420794
31.4600	20.000000	105.092529
31.4700	20.000000	104.760247
31.4800	20.000000	104.336155
31.4900	20.000000	103.748588
31.5000	20.000000	102.978804
31.5100	20.000000	102.074733
31.5200	20.000000	101.133592
31.5300	20.000000	100.260538
31.5400	20.000000	99.522681
31.5500	20.000000	98.920705
31.5600	20.000000	98.392091
31.5700	20.000000	97.844482
31.5800	20.000000	97.202544
31.5900	20.000000	96.444538
31.6000	20.000000	95.609683
31.6100	20.000000	94.772029
31.6200	20.000000	93.994008
31.6300	20.000000	93.284150
31.6400	20.000000	92.582566
31.6500	20.000000	91.784631
31.6600	20.000000	90.793888
31.6700	20.000000	89.579135
31.6800	20.000000	88.206232
31.6900	20.000000	86.825337
31.7000	20.000000	85.614786
31.7100	20.000000	84.704226
31.7200	20.000000	84.111403
31.7300	20.000000	83.723086
31.7400	20.000000	83.332010
31.7500	20.000000	82.716674
31.7600	20.000000	81.730867
31.7700	20.000000	80.364257
31.7800	20.000000	78.747333
31.7900	20.000000	77.098100
31.8000	20.000000	75.633445
31.8100	20.000000	74.483349
31.8200	20.000000	73.644309
31.8300	20.000000	72.990377
31.8400	20.000000	72.334539
31.8500	20.000000	71.511472
31.8600	20.000000	70.444645
31.8700	20.000000	69.169643
31.8800	20.000000	67.806553
31.8900	20.000000	66.497522
31.9000	20.000000	65.340185
31.9100	20.000000	64.347526
31.9200	20.000000	63.450526
31.9300	20.000000	62.539106
31.9400	20.000000	61.519357
31.9500	20.000000	60.358899
31.9600	20.000000	59.099614
31.9700	20.000000	57.833758
31.9800	20.000000	56.657054
31.9900	20.000000	55.622478
32.0000	20.000000	54.716725
32.0100	20.000000	53.869260
32.0200	20.000000	52.987868
32.0300	20.000000	52.002499
32.0400	20.000000	50.896492
32.0500	20.000000	49.711608
32.0600	20.000000	48.526464
32.0700	20.000000	47.420307
32.0800	20.000000	46.439692
32.0900	20.000000	45.582579
32.1000	20.000000	44.804775
32.1100	20.000000	44.042870
32.1200	20.000000	43.241128
32.1300	20.000000	42.370020
32.1400	20.000000	41.430196
32.1500	20.000000	40.443904
32.1600	20.000000	39.441580
32.1700	20.000000	38.451825
32.1800	20.000000	37.498771
32.1900	20.000000	36.604782
32.2000	20.000000	35.792568
32.2100	20.000000	35.081425
32.2200	20.000000	34.476982
32.2300	20.000000	33.959696
32.2400	20.000000	33.480456
32.2500	20.000000	32.969766
32.2600	20.000000	32.360412
32.2700	20.000000	31.615681
32.2800	20.000000	30.750321
32.2900	20.000000	29.832718
32.3000	20.000000	28.964248
32.3100	20.000000	28.242239
32.3200	20.000000	27.721370
32.3300	20.000000	27.390327
32.3400	20.000000	27.174686
32.3500	20.000000	26.965810
32.3600	20.000000	26.663961
32.3700	20.000000	26.217446
32.3800	20.000000	25.641328
32.3900	20.000000	25.008313
32.4000	20.000000	24.416652
32.4100	20.000000	23.949547
32.4200	20.000000	23.643448
32.4300	20.000000	23.477627
32.4400	20.000000	23.387410
32.4500	20.000000	23.293150
32.4600	20.000000	23.131312
32.4700	20.000000	22.874911
32.4800	20.000000	22.537028
32.4900	20.000000	22.159366
32.5000	20.000000	21.793772
32.5100	20.000000	21.485729
32.5200	20.000000	21.265347
32.5300	20.000000	21.145905
32.5400	20.000000	21.126051
32.5500	20.000000	21.191244
32.5600	20.000000	21.313008
32.5700	20.000000	21.448467
32.5800	20.000000	21.544650
32.5900	20.000000	21.550421
32.6000	20.000000	21.434108
32.6100	20.000000	21.199910
32.6200	20.000000	20.894066
32.6300	20.000000	20.594703
32.6400	20.000000	20.386408
32.6500	20.000000	20.328509
32.6600	20.000000	20.430653
32.6700	20.000000	20.647458
32.6800	20.000000	20.896111
32.6900	20.000000	21.090661
32.7000	20.000000	21.177299
32.7100	20.000000	21.153742
32.7200	20.000000	21.064880
32.7300	20.000000	20.976218
32.7400	20.000000	20.938241
32.7500	20.000000	20.959709
32.7600	20.000000	21.003696
32.7700	20.000000	21.008922
32.7800	20.000000	20.925832
32.7900	20.000000	20.748834
32.8000	20.000000	20.527204
32.8100	20.000000	20.347423
32.8200	20.000000	20.294092
32.8300	20.000000	20.407998
32.8400	20.000000	20.662335
32.8500	20.000000	20.969977
32.8600	20.000000	21.219695
32.8700	20.000000	21.324715
32.8800	20.000000	21.260350
32.8900	20.000000	21.072354
32.9000	20.000000	20.851977
32.9100	20.000000	20.689176
32.9200	20.000000	20.628504
32.9300	20.000000	20.650064
32.9400	20.000000	20.685645
32.9500	20.000000	20.662158
32.9600	20.000000	20.549798
32.9700	20.000000	20.388679
32.9800	20.000000	20.277507
32.9900	20.000000	20.326751
33.0000	20.000000	20.597649
33.0100	20.000000	21.057627
33.0200	20.000000	21.577118
33.0300	20.000000	21.974216
33.0400	20.000000	22.090577
33.0500	20.000000	21.865458
33.0600	20.000000	21.373160
33.0700	20.000000	20.803920
33.0800	20.000000	20.393223
33.0900	20.000000	20.328155
33.1000	20.000000	20.670863
33.1100	20.000000	21.332624
33.1200	20.000000	22.110300
33.1300	20.000000	22.769639
33.1400	20.000000	23.139502
33.1500	20.000000	23.176746
33.1600	20.000000	22.975158
33.1700	20.000000	22.716949
33.1800	20.000000	22.590463
33.1900	20.000000	22.711476
33.2000	20.000000	23.082013
33.2100	20.000000	23.602081
33.2200	20.000000	24.125223
33.2300	20.000000	24.529682
33.2400	20.000000	24.771772
33.2500	20.000000	24.898440
33.2600	20.000000	25.016349
33.2700	20.000000	25.235184
33.2800	20.000000	25.613715
33.2900	20.000000	26.134008
33.3000	20.000000	26.714239
33.3100	20.000000	27.251639
33.3200	20.000000	27.673305
33.3300	20.000000	27.970213
33.3400	20.000000	28.199183
33.3500	20.000000	28.453668
33.3600	20.000000	28.818849
33.3700	20.000000	29.332960
33.3800	20.000000	29.972310
33.3900	20.000000	30.665234
33.4000	20.000000	31.326358
33.4100	20.000000	31.893983
33.4200	20.000000	32.353629
33.4300	20.000000	32.738903
33.4400	20.000000	33.112270
33.4500	20.000000	33.537077
33.4600	20.000000	34.054447
33.4700	20.000000	34.673991
33.4800	20.000000	35.379038
33.4900	20.000000	36.139853
33.5000	20.000000	36.925892
33.5100	20.000000	37.711127
33.5200	20.000000	38.472528
33.5300	20.000000	39.186937
33.5400	20.000000	39.832554
33.5500	20.000000	40.397606
33.5600	20.000000	40.892684
33.5700	20.000000	41.358668
33.5800	20.000000	41.862319
33.5900	20.000000	42.476994
33.6000	20.000000	43.254111
33.6100	20.000000	44.197497
33.6200	20.000000	45.253736
33.6300	20.000000	46.325819
33.6400	20.000000	47.307097
33.6500	20.000000	48.122558
33.6600	20.000000	48.759860
33.6700	20.000000	49.275981
33.6800	20.000000	49.775521
33.6900	20.000000	50.369203
33.7000	20.000000	51.129968
33.7100	20.000000	52.065226
33.7200	20.000000	53.116624
33.7300	20.000000	54.186539
33.7400	20.000000	55.179049
33.7500	20.000000	56.037507
33.7600	20.000000	56.763448
33.7700	20.000000	57.410630
33.7800	20.000000	58.059151
33.7900	20.000000	58.782467
33.8000	20.000000	59.621523
33.8100	20.000000	60.575125
33.8200	20.000000	61.607306
33.8300	20.000000	62.665045
33.8400	20.000000	63.696858
33.8500	20.000000	64.664955
33.8600	20.000000	65.549022
33.8700	20.000000	66.344648
33.8800	20.000000	67.061207
33.8900	20.000000	67.721969
33.9000	20.000000	68.365160
33.9100	20.000000	69.041647
33.9200	20.000000	69.805326
33.9300	20.000000	70.696330
33.9400	20.000000	71.722671
33.9500	20.000000	72.849409
33.9600	20.000000	74.003208
33.9700	20.000000	75.093965
33.9800	20.000000	76.046783
33.9900	20.000000	76.831248
34.0000	20.000000	77.474436
34.0100	20.000000	78.050427
34.0200	20.000000	78.649670
34.0300	20.000000	79.341363
34.0400	20.000000	80.146032
34.0500	20.000000	81.031178
34.0600	20.000000	81.932040
34.0700	20.000000	82.787204
34.0800	20.000000	83.571190
34.0900	20.000000	84.307307
34.1000	20.000000	85.053775
34.1100	20.000000	85.869705
34.1200	20.000000	86.778280
34.1300	20.000000	87.746691
34.1400	20.000000	88.694600
34.1500	20.000000	89.528765
34.1600	20.000000	90.187788
34.1700	20.000000	90.674946
34.1800	20.000000	91.061957
34.1900	20.000000	91.460325
34.2000	20.000000	91.972974
34.2100	20.000000	92.649121
34.2200	20.000000	93.464345
34.2300	20.000000	94.335793
34.2400	20.000000	95.165085
34.2500	20.000000	95.887371
34.2600	20.000000	96.501532
34.2700	20.000000	97.065677
34.2800	20.000000	97.659745
34.2900	20.000000	98.334397
34.3000	20.000000	99.073527
34.3100	20.000000	99.792119
34.3200	20.000000	100.373907
34.3300	20.000000	100.732687
34.3400	20.000000	100.867353
34.3500	20.000000	100.881280
34.3600	20.000000	100.951981
34.3700	20.000000	101.260424
34.3800	20.000000	101.909841
34.3900	20.000000	102.871244
34.4000	20.000000	103.982891
34.4100	20.000000	105.007652
34.4200	20.000000	105.725977
34.4300	20.000000	106.025186
34.4400	20.000000	105.946258
34.4500	20.000000	105.667277
34.4600	20.000000	105.430337
34.4700	20.000000	105.443424
34.4800	20.000000	105.799409
34.4900	20.000000	106.446060
34.5000	20.000000	107.217870
34.5100	20.000000	107.913158
34.5200	20.000000	108.380825
34.5300	20.000000	108.578608
34.5400	20.000000	108.579367
34.5500	20.000000	108.526397
34.5600	20.000000	108.561572
34.5700	20.000000	108.760782
34.5800	20.000000	109.105541
34.5900	20.000000	109.501018
34.6000	20.000000	109.828593
34.6100	20.000000	110.005737
34.6200	20.000000	110.024381
34.6300	20.000000	109.950939
34.6400	20.000000	109.890366
34.6500	20.000000	109.933532
34.6600	20.000000	110.113986
34.6700	20.000000	110.394149
34.6800	20.000000	110.685859
34.6900	20.000000	110.893648
34.7000	20.000000	110.959173
